<svg width="32" height="32" viewBox="0 0 32 32" fill="none" xmlns="http://www.w3.org/2000/svg">
<g clip-path="url(#clip0_870_8724)">
<path d="M19.3142 4.19053C19.6545 4.28625 19.9429 4.5132 20.1159 4.82149C20.2889 5.12978 20.3324 5.49417 20.2368 5.83453L14.3302 26.8852C14.2829 27.0538 14.2029 27.2115 14.0947 27.3492C13.9865 27.4868 13.8522 27.6019 13.6995 27.6877C13.5469 27.7735 13.3788 27.8284 13.2049 27.8492C13.0311 27.8701 12.8548 27.8565 12.6862 27.8092C12.5175 27.7619 12.3599 27.6819 12.2222 27.5737C12.0845 27.4655 11.9695 27.3312 11.8837 27.1786C11.7979 27.0259 11.743 26.8578 11.7221 26.684C11.7013 26.5101 11.7149 26.3338 11.7622 26.1652L17.6688 5.11453C17.7161 4.94575 17.7961 4.78795 17.9044 4.65014C18.0127 4.51233 18.1471 4.39722 18.2999 4.3114C18.4527 4.22559 18.621 4.17074 18.795 4.14999C18.969 4.12925 19.1455 4.14303 19.3142 4.19053ZM9.60883 9.39986C9.85879 9.6499 9.99921 9.98897 9.99921 10.3425C9.99921 10.6961 9.85879 11.0352 9.60883 11.2852L4.8955 15.9999L9.60883 20.7132C9.73271 20.837 9.831 20.984 9.89807 21.1457C9.96515 21.3075 9.99971 21.4809 9.99977 21.6561C9.99983 21.8312 9.96539 22.0046 9.89843 22.1664C9.83147 22.3283 9.73329 22.4753 9.6095 22.5992C9.4857 22.7231 9.33872 22.8214 9.17695 22.8884C9.01517 22.9555 8.84177 22.9901 8.66663 22.9901C8.4915 22.9902 8.31807 22.9558 8.15625 22.8888C7.99443 22.8218 7.84738 22.7237 7.7235 22.5999L2.06616 16.9425C1.8162 16.6925 1.67578 16.3534 1.67578 15.9999C1.67578 15.6463 1.8162 15.3072 2.06616 15.0572L7.7235 9.39986C7.97353 9.1499 8.31261 9.00948 8.66616 9.00948C9.01972 9.00948 9.35879 9.1499 9.60883 9.39986ZM22.3902 11.2852C22.2628 11.1622 22.1612 11.0151 22.0914 10.8524C22.0215 10.6897 21.9847 10.5148 21.9832 10.3377C21.9816 10.1607 22.0154 9.98512 22.0824 9.82125C22.1494 9.65739 22.2484 9.50852 22.3736 9.38333C22.4988 9.25814 22.6477 9.15914 22.8116 9.0921C22.9754 9.02506 23.151 8.99132 23.328 8.99286C23.5051 8.9944 23.68 9.03118 23.8427 9.10106C24.0054 9.17094 24.1525 9.27251 24.2755 9.39986L29.9328 15.0572C30.1828 15.3072 30.3232 15.6463 30.3232 15.9999C30.3232 16.3534 30.1828 16.6925 29.9328 16.9425L24.2755 22.5999C24.0253 22.8499 23.6861 22.9903 23.3324 22.9901C22.9787 22.99 22.6395 22.8494 22.3895 22.5992C22.1395 22.349 21.9991 22.0097 21.9992 21.6561C21.9994 21.3024 22.14 20.9632 22.3902 20.7132L27.1035 15.9999L22.3902 11.2852Z" fill="#FD496D"/>
</g>
<defs>
<clipPath id="clip0_870_8724">
<rect width="32" height="32" fill="white"/>
</clipPath>
</defs>
</svg>
