<svg width="409" height="433" viewBox="0 0 409 433" fill="none" xmlns="http://www.w3.org/2000/svg">
<g clip-path="url(#clip0_807_164)">
<path d="M156.573 68.8998C167.281 68.8998 175.962 60.2268 175.962 49.528C175.962 38.8293 167.281 30.1562 156.573 30.1562C145.864 30.1562 137.184 38.8293 137.184 49.528C137.184 60.2268 145.864 68.8998 156.573 68.8998Z" fill="#FD6584"/>
<path d="M199.967 40.3552C199.42 38.5639 198.361 36.9714 196.92 35.7738C195.478 34.5763 193.718 33.8259 191.856 33.6152C191.812 33.6115 191.768 33.6115 191.725 33.6152C191.673 33.5989 191.619 33.5867 191.565 33.5789C185.073 32.7373 177.855 34.7833 172.997 39.2379C171.194 40.8655 169.751 42.8526 168.763 45.0711C167.863 43.8421 166.676 42.8509 165.306 42.1835C163.935 41.516 162.423 41.1923 160.899 41.2403C158.934 41.3701 157.057 42.1023 155.523 43.3371C153.99 44.5718 152.875 46.249 152.33 48.14C152.27 48.371 152.287 48.6152 152.377 48.8361C152.467 49.0571 152.627 49.243 152.831 49.3661C153.415 49.8652 154.11 50.2183 154.857 50.3963C156.462 50.7373 158.082 51.0493 159.701 51.3323C162.867 51.8837 166.05 52.3311 169.25 52.6745C171.363 52.8994 173.481 53.0783 175.604 53.2113C179.99 53.487 184.398 53.5523 188.791 53.4145C190.97 53.3419 193.061 53.2694 195.051 52.3117C196.501 51.5993 197.739 50.5215 198.645 49.1847C199.498 47.8989 200.058 46.4419 200.286 44.9165C200.515 43.391 200.406 41.834 199.967 40.3552Z" fill="#E6E6E6"/>
<path d="M160.079 68.5778C160.042 67.7661 159.905 66.962 159.672 66.1836C159.123 64.3924 158.062 62.8005 156.62 61.6031C155.177 60.4058 153.417 59.6553 151.554 59.4436C151.512 59.44 151.471 59.44 151.43 59.4436C151.375 59.428 151.319 59.4159 151.263 59.4073C147.67 58.9676 144.024 59.342 140.596 60.5028C135.324 62.2658 130.698 65.8208 128.469 70.8994C127.567 69.6697 126.379 68.6781 125.008 68.0106C123.636 67.3431 122.122 67.0198 120.597 67.0687C118.632 67.1985 116.755 67.9307 115.221 69.1654C113.688 70.4002 112.573 72.0774 112.028 73.9684C111.972 74.1994 111.99 74.4424 112.08 74.6626C112.17 74.8828 112.327 75.069 112.529 75.1945C113.114 75.6922 113.808 76.0451 114.555 76.2247C116.167 76.5657 117.78 76.8777 119.406 77.1606C122.572 77.712 125.753 78.1594 128.948 78.5028C135.439 79.1991 141.971 79.4463 148.496 79.2428C150.668 79.1703 152.766 79.0977 154.756 78.1401C156.204 77.4274 157.44 76.3496 158.343 75.0131C159.616 73.1179 160.226 70.8554 160.079 68.5778Z" fill="#E6E6E6"/>
<path d="M303.632 313.045H285.957V37.3713C284.766 36.4934 283.568 35.6228 282.355 34.7739C282.116 34.6071 281.876 34.4402 281.636 34.2733C267.657 24.5041 252.535 16.4784 236.607 10.3749L233.179 57.6059L233.179 57.6088H211.126V2.4595C209.688 2.10399 208.25 1.77025 206.798 1.45828V57.6088H123.521V0C122.076 0.268441 120.631 0.544139 119.193 0.8416V57.6088H96.4133L96.413 57.6059L92.8185 8.07499C77.3174 13.4433 62.5032 20.6173 48.6821 29.4487C48.2029 29.7534 47.7236 30.0581 47.2443 30.3773C46.2785 31.0013 45.3127 31.6397 44.3615 32.2854V313.045H19.4757C16.2918 313.043 13.1561 313.822 10.3434 315.312C7.53065 316.803 5.12687 318.96 3.34278 321.595C1.55868 324.229 0.448741 327.261 0.110287 330.424C-0.228167 333.587 0.215192 336.785 1.40149 339.737C1.75742 340.629 2.1823 341.493 2.67228 342.32C3.30512 343.398 4.03947 344.414 4.86531 345.352C6.68959 347.43 8.93661 349.094 11.4562 350.233C13.9758 351.373 16.7099 351.962 19.4758 351.962H303.632C308.797 351.962 313.751 349.912 317.403 346.263C321.056 342.613 323.108 337.664 323.108 332.504C323.108 327.343 321.056 322.394 317.403 318.744C313.751 315.095 308.797 313.045 303.632 313.045ZM228.43 123.18L214.684 313.045H114.908L101.162 123.18H228.43ZM232.867 61.9321L229.476 108.768H211.126V61.9321H232.867ZM206.798 61.9321V108.768H173.661C172.997 107.468 171.987 106.375 170.741 105.612C169.495 104.849 168.062 104.445 166.601 104.445H162.273C160.812 104.445 159.379 104.849 158.133 105.612C156.887 106.375 155.877 107.468 155.213 108.768H123.521V61.9321H206.798ZM119.193 108.768H100.116L96.7255 61.9321H119.193V108.768Z" fill="#ECECEC"/>
<path d="M1.71875 344.421C8.02714 351.889 14.8504 358.908 22.1385 365.425L297.777 366.151C305.065 359.633 311.888 352.615 318.196 345.147L1.71875 344.421Z" fill="#3F3D56"/>
<path d="M140.918 274.184V348.593H193.093V274.184C193.094 273.649 192.923 273.128 192.605 272.697C192.288 272.266 191.84 271.948 191.328 271.79C191.087 271.71 190.835 271.671 190.58 271.674H143.438C143.107 271.673 142.78 271.738 142.474 271.864C142.169 271.989 141.891 272.174 141.657 272.407C141.423 272.64 141.237 272.917 141.111 273.222C140.984 273.527 140.918 273.854 140.918 274.184ZM161.28 299.751C161.294 298.285 161.886 296.883 162.929 295.85C163.972 294.818 165.381 294.239 166.849 294.239C168.318 294.239 169.726 294.818 170.769 295.85C171.812 296.883 172.405 298.285 172.419 299.751V308.385C172.412 309.856 171.821 311.264 170.778 312.302C169.734 313.339 168.322 313.921 166.849 313.921C165.377 313.921 163.965 313.339 162.921 312.302C161.877 311.264 161.287 309.856 161.28 308.385V299.751Z" fill="#2F2E41"/>
<path d="M140.758 346.213V353.389C140.759 353.76 140.907 354.117 141.169 354.38C141.432 354.644 141.787 354.793 142.159 354.796H191.851C192.223 354.794 192.58 354.645 192.842 354.381C193.105 354.118 193.252 353.761 193.252 353.389V346.213H140.758Z" fill="#3F3D56"/>
<path d="M58.8398 162.078V297.938C58.8412 299.669 59.5302 301.329 60.7556 302.553C61.9809 303.778 63.6424 304.466 65.3753 304.467H266.886C268.619 304.466 270.281 303.778 271.506 302.553C272.732 301.329 273.421 299.669 273.422 297.938V162.078C273.418 160.348 272.728 158.69 271.503 157.468C270.278 156.245 268.618 155.557 266.886 155.555H65.3753C63.644 155.558 61.984 156.245 60.7591 157.468C59.5341 158.69 58.844 160.348 58.8398 162.078Z" fill="#3F3D56"/>
<path d="M63.5664 163.768V296.262C63.568 297.187 63.9365 298.073 64.5912 298.728C65.2459 299.382 66.1334 299.75 67.0593 299.751H265.208C266.134 299.75 267.022 299.382 267.676 298.728C268.331 298.073 268.7 297.187 268.701 296.262V163.768C268.701 162.842 268.333 161.954 267.678 161.298C267.024 160.642 266.135 160.273 265.208 160.271H67.0593C66.1323 160.273 65.2439 160.642 64.5891 161.298C63.9343 161.954 63.5665 162.842 63.5664 163.768Z" fill="#6C63FF"/>
<path d="M103.97 356.487C104.172 356.739 104.428 356.943 104.72 357.082C105.012 357.222 105.331 357.294 105.655 357.292H223.541C223.863 357.292 224.181 357.219 224.472 357.081C224.763 356.942 225.02 356.74 225.223 356.49C225.426 356.24 225.571 355.947 225.646 355.634C225.722 355.321 225.727 354.995 225.661 354.68L223.831 345.996C223.755 345.642 223.592 345.312 223.356 345.037C223.12 344.762 222.819 344.55 222.48 344.421C222.235 344.325 221.974 344.276 221.711 344.276H107.478C107.214 344.276 106.953 344.325 106.708 344.421C106.369 344.55 106.068 344.762 105.832 345.037C105.596 345.312 105.433 345.642 105.357 345.996L103.527 354.68C103.462 354.995 103.468 355.321 103.545 355.633C103.621 355.946 103.767 356.237 103.97 356.487Z" fill="#2F2E41"/>
<path d="M107.479 346.09C107.443 346.09 107.408 346.096 107.374 346.109C107.316 346.128 107.264 346.162 107.223 346.207C107.181 346.251 107.152 346.306 107.136 346.365L105.305 355.054C105.295 355.104 105.297 355.156 105.31 355.205C105.322 355.255 105.346 355.301 105.379 355.341L105.387 355.351C105.419 355.392 105.459 355.425 105.506 355.447C105.553 355.469 105.605 355.48 105.656 355.478H223.542C223.594 355.479 223.645 355.468 223.691 355.446C223.738 355.424 223.779 355.391 223.811 355.351C223.845 355.313 223.87 355.266 223.884 355.216C223.897 355.166 223.898 355.114 223.888 355.063L222.056 346.369C222.043 346.312 222.016 346.259 221.977 346.215C221.939 346.171 221.89 346.137 221.836 346.116C221.797 346.099 221.755 346.091 221.712 346.09H107.479Z" fill="white"/>
<path d="M73.4301 178.523H258.837C259.03 178.518 259.213 178.439 259.348 178.301C259.483 178.163 259.558 177.979 259.558 177.786C259.558 177.593 259.483 177.408 259.348 177.271C259.213 177.133 259.03 177.054 258.837 177.049H73.4301C73.2374 177.054 73.054 177.133 72.9192 177.271C72.7845 177.408 72.709 177.593 72.709 177.786C72.709 177.979 72.7845 178.163 72.9192 178.301C73.054 178.439 73.2374 178.518 73.4301 178.523Z" fill="#3F3D56"/>
<path d="M246.217 173.288C248.604 173.288 250.538 171.312 250.538 168.875C250.538 166.437 248.604 164.462 246.217 164.462C243.831 164.462 241.896 166.437 241.896 168.875C241.896 171.312 243.831 173.288 246.217 173.288Z" fill="#3F3D56"/>
<path d="M231.29 173.288C233.676 173.288 235.611 171.312 235.611 168.875C235.611 166.437 233.676 164.462 231.29 164.462C228.903 164.462 226.969 166.437 226.969 168.875C226.969 171.312 228.903 173.288 231.29 173.288Z" fill="#3F3D56"/>
<path d="M216.362 173.288C218.748 173.288 220.683 171.312 220.683 168.875C220.683 166.437 218.748 164.462 216.362 164.462C213.976 164.462 212.041 166.437 212.041 168.875C212.041 171.312 213.976 173.288 216.362 173.288Z" fill="#3F3D56"/>
<path d="M81.627 166.358C81.6265 166.463 81.6466 166.566 81.6861 166.662C81.7256 166.759 81.7837 166.847 81.8572 166.921C81.9307 166.995 82.0182 167.054 82.1145 167.094C82.2108 167.135 82.3141 167.156 82.4185 167.156H93.0205C93.2301 167.151 93.4294 167.065 93.5759 166.915C93.7224 166.765 93.8045 166.564 93.8045 166.355C93.8045 166.145 93.7224 165.944 93.5759 165.794C93.4294 165.644 93.2301 165.558 93.0205 165.553H82.4185C82.2068 165.555 82.0048 165.642 81.8565 165.792C81.7082 165.943 81.6257 166.147 81.627 166.358Z" fill="#3F3D56"/>
<path d="M81.627 169.369C81.6265 169.473 81.6465 169.577 81.686 169.673C81.7256 169.77 81.7837 169.858 81.8572 169.932C81.9307 170.006 82.0181 170.065 82.1144 170.105C82.2107 170.146 82.3141 170.167 82.4185 170.167H93.0205C93.2303 170.162 93.4299 170.076 93.5766 169.926C93.7233 169.776 93.8054 169.575 93.8054 169.365C93.8054 169.156 93.7233 168.955 93.5766 168.805C93.4299 168.655 93.2303 168.568 93.0205 168.564H82.4185C82.2068 168.566 82.0048 168.652 81.8565 168.803C81.7082 168.954 81.6257 169.158 81.627 169.369Z" fill="#3F3D56"/>
<path d="M81.627 172.373C81.6257 172.584 81.7082 172.788 81.8565 172.939C82.0048 173.089 82.2068 173.176 82.4185 173.178H93.0205C93.2301 173.173 93.4294 173.087 93.5759 172.937C93.7224 172.787 93.8045 172.586 93.8045 172.376C93.8045 172.167 93.7224 171.966 93.5759 171.816C93.4294 171.666 93.2301 171.58 93.0205 171.575H82.4185C82.3141 171.575 82.2107 171.596 82.1144 171.637C82.0181 171.677 81.9307 171.736 81.8572 171.81C81.7837 171.884 81.7256 171.972 81.686 172.068C81.6465 172.165 81.6265 172.268 81.627 172.373Z" fill="#3F3D56"/>
<path d="M231.213 201.009H101.057C99.3469 201.011 97.7076 201.691 96.4986 202.899C95.2895 204.107 94.6094 205.745 94.6074 207.453V270.744C94.6093 272.453 95.2894 274.091 96.4985 275.299C97.7075 276.507 99.3468 277.186 101.057 277.188H231.213C232.923 277.186 234.562 276.507 235.771 275.299C236.98 274.091 237.66 272.453 237.662 270.744V207.453C237.66 205.745 236.98 204.107 235.771 202.899C234.562 201.691 232.923 201.011 231.213 201.009ZM236.21 207.453V225.918H190.461V202.46H231.213C232.538 202.462 233.808 202.988 234.745 203.924C235.681 204.86 236.208 206.129 236.21 207.453ZM143.261 250.828V227.369H189.009V250.828H143.261ZM189.009 252.279V275.737H143.261V252.279H189.009ZM141.808 250.828H96.0598V227.369H141.808V250.828ZM143.261 225.918V202.46H189.009V225.918H143.261ZM190.461 227.369H236.21V250.828H190.461V227.369ZM101.057 202.46H141.808V225.918H96.0598V207.453C96.0613 206.129 96.5882 204.86 97.525 203.924C98.4618 202.988 99.7319 202.462 101.057 202.46ZM96.0598 270.744V252.279H141.808V275.737H101.057C99.7319 275.736 98.4617 275.209 97.5249 274.273C96.5881 273.337 96.0612 272.068 96.0598 270.744ZM231.213 275.737H190.461V252.279H236.21V270.744C236.208 272.068 235.682 273.337 234.745 274.273C233.808 275.209 232.538 275.736 231.213 275.737Z" fill="#3F3D56"/>
<path d="M159.519 217.078C158.364 215.17 156.995 213.132 154.852 212.509C152.369 211.787 149.82 213.221 147.657 214.635C141.188 218.867 134.959 223.452 128.998 228.371L129.005 228.445L142.928 227.485C146.281 227.254 149.75 226.991 152.713 225.406C153.837 224.805 154.934 224.002 156.208 223.946C157.791 223.876 159.171 224.981 160.256 226.135C166.673 232.962 168.53 243.402 175.729 249.4C171.189 238.215 165.769 227.407 159.519 217.078Z" fill="white"/>
<path d="M198.962 274.982C198.252 274.087 197.962 273.877 197.262 272.974C191.563 265.609 186.206 257.996 181.192 250.134C177.786 244.795 174.549 239.352 171.481 233.808C170.02 231.172 168.599 228.515 167.219 225.838C166.147 223.762 165.1 221.673 164.076 219.573C163.784 218.973 163.499 218.37 163.216 217.766C162.549 216.345 161.895 214.917 161.192 213.516C160.466 211.833 159.354 210.345 157.946 209.171C157.277 208.662 156.477 208.355 155.639 208.284C154.46 208.29 153.304 208.621 152.3 209.24C144.696 213.233 137.599 218.123 131.16 223.804C124.711 229.463 118.947 235.856 113.985 242.852C113.833 243.069 113.474 242.862 113.627 242.644C114.23 241.792 114.846 240.948 115.473 240.114C123.273 229.75 132.836 220.838 143.726 213.785C145.558 212.598 147.425 211.468 149.326 210.393C150.284 209.851 151.246 209.315 152.225 208.813C153.163 208.264 154.215 207.938 155.3 207.862C159.03 207.804 160.962 212.025 162.289 214.865C162.705 215.759 163.127 216.65 163.555 217.538C165.168 220.911 166.845 224.252 168.583 227.563C169.655 229.608 170.752 231.64 171.871 233.66C175.356 239.952 179.06 246.116 182.983 252.152C188.179 260.148 193.335 267.212 199.255 274.69C199.418 274.897 199.126 275.192 198.962 274.982Z" fill="white"/>
<path d="M130.792 221.72C130.575 221.479 130.36 221.237 130.142 220.996C128.421 219.095 126.576 217.217 124.213 216.127C123.087 215.591 121.857 215.306 120.61 215.292C119.323 215.328 118.054 215.604 116.868 216.108C116.305 216.332 115.754 216.588 115.212 216.859C114.592 217.171 113.983 217.503 113.377 217.839C112.239 218.468 111.116 219.124 110.008 219.808C107.803 221.17 105.667 222.635 103.601 224.205C102.529 225.018 101.48 225.859 100.453 226.726C99.4974 227.532 98.5614 228.359 97.6447 229.208C97.4486 229.388 97.1559 229.096 97.3519 228.915C97.5935 228.69 97.8379 228.467 98.0823 228.246C98.7726 227.623 99.474 227.011 100.186 226.412C101.486 225.316 102.818 224.263 104.185 223.253C106.309 221.68 108.507 220.214 110.778 218.855C111.913 218.177 113.064 217.526 114.23 216.905C114.582 216.717 114.938 216.534 115.299 216.36C116.116 215.948 116.966 215.602 117.839 215.327C119.076 214.927 120.385 214.799 121.676 214.95C122.922 215.131 124.123 215.547 125.216 216.174C127.535 217.469 129.334 219.472 131.085 221.427C131.261 221.625 130.97 221.919 130.792 221.72Z" fill="white"/>
<path d="M178.315 241.417L183.873 239.386L186.633 238.378C187.524 238.019 188.434 237.707 189.357 237.441C190.165 237.21 191.022 237.221 191.823 237.472C192.538 237.736 193.192 238.141 193.747 238.663C194.313 239.185 194.841 239.747 195.324 240.346C195.925 241.068 196.517 241.797 197.111 242.523C199.565 245.522 202.003 248.533 204.425 251.557C206.847 254.582 209.253 257.619 211.642 260.669C214.037 263.727 216.416 266.797 218.778 269.88C219.068 270.258 219.357 270.636 219.646 271.014C219.805 271.223 220.165 271.017 220.003 270.805C217.624 267.691 215.227 264.589 212.814 261.501C210.396 258.405 207.96 255.322 205.508 252.252C203.055 249.183 200.587 246.126 198.101 243.083C197.482 242.325 196.862 241.568 196.241 240.811C195.717 240.173 195.199 239.528 194.624 238.934C194.134 238.345 193.534 237.858 192.856 237.501C192.178 237.144 191.436 236.925 190.673 236.855C189.749 236.887 188.838 237.087 187.985 237.445C187.056 237.781 186.129 238.123 185.201 238.462L179.605 240.507L178.205 241.018C177.957 241.109 178.064 241.509 178.315 241.417Z" fill="white"/>
<path d="M123.48 218.519C122.052 217.816 120.462 217.505 118.874 217.618C117.286 217.732 115.757 218.265 114.443 219.164C119.394 220.018 124.29 221.159 129.108 222.584C127.107 221.413 125.542 219.578 123.48 218.519Z" fill="white"/>
<path d="M114.417 219.159L113.873 219.601C114.057 219.446 114.248 219.301 114.445 219.164L114.417 219.159Z" fill="white"/>
<path d="M193.537 241.438C193.051 240.721 192.373 240.156 191.58 239.805L190.816 239.836C196.632 250.103 204.487 259.075 213.899 266.201L193.537 241.438Z" fill="white"/>
<path d="M189.962 230.196C192.392 230.196 194.362 228.228 194.362 225.8C194.362 223.372 192.392 221.404 189.962 221.404C187.532 221.404 185.562 223.372 185.562 225.8C185.562 228.228 187.532 230.196 189.962 230.196Z" fill="white"/>
<path d="M253.811 274.649C254.677 274.648 255.507 274.303 256.12 273.691C256.733 273.079 257.077 272.25 257.078 271.384V203.911C257.078 203.045 256.734 202.215 256.121 201.603C255.509 200.99 254.677 200.646 253.811 200.646C252.944 200.646 252.113 200.99 251.5 201.603C250.887 202.215 250.543 203.045 250.543 203.911V271.384C250.544 272.25 250.889 273.079 251.502 273.691C252.114 274.303 252.944 274.648 253.811 274.649Z" fill="#3F3D56"/>
<path d="M253.811 274.649C254.677 274.648 255.507 274.303 256.12 273.691C256.733 273.079 257.077 272.25 257.078 271.384V257.077C256.702 256.564 256.21 256.147 255.642 255.86C255.075 255.573 254.447 255.423 253.811 255.423C253.174 255.423 252.547 255.573 251.979 255.86C251.411 256.147 250.919 256.564 250.543 257.077V271.384C250.544 272.25 250.889 273.079 251.502 273.691C252.114 274.303 252.944 274.648 253.811 274.649Z" fill="#2F2E41"/>
<path d="M253.811 260.864C254.743 260.863 255.636 260.493 256.295 259.834C256.954 259.176 257.324 258.284 257.326 257.353V241.966C256.921 241.415 256.392 240.966 255.781 240.657C255.171 240.348 254.496 240.187 253.811 240.187C253.127 240.187 252.452 240.348 251.841 240.657C251.231 240.966 250.702 241.415 250.297 241.966V257.353C250.298 258.284 250.669 259.176 251.328 259.834C251.987 260.493 252.88 260.863 253.811 260.864Z" fill="#6C63FF"/>
<path d="M253.811 258.066C254.491 258.065 255.142 257.795 255.623 257.315C256.103 256.835 256.374 256.184 256.375 255.505V244.282C256.079 243.88 255.694 243.553 255.248 243.328C254.803 243.102 254.311 242.985 253.811 242.985C253.312 242.985 252.82 243.102 252.375 243.328C251.929 243.553 251.543 243.88 251.248 244.282V255.505C251.249 256.184 251.519 256.835 252 257.315C252.48 257.795 253.132 258.065 253.811 258.066Z" fill="#3F3D56"/>
<path d="M153.003 350.45C152.429 349.936 152.083 349.217 152.04 348.448C151.997 347.68 152.26 346.926 152.773 346.352L181.323 314.435C181.577 314.151 181.885 313.92 182.228 313.755C182.572 313.589 182.945 313.493 183.326 313.472C183.706 313.45 184.088 313.504 184.448 313.63C184.808 313.756 185.14 313.951 185.424 314.205C185.708 314.459 185.94 314.767 186.105 315.11C186.271 315.454 186.367 315.826 186.388 316.207C186.41 316.587 186.356 316.968 186.23 317.328C186.104 317.688 185.908 318.019 185.654 318.303L157.104 350.22C156.591 350.793 155.87 351.139 155.101 351.182C154.332 351.225 153.578 350.962 153.003 350.45Z" fill="#6C63FF"/>
<path d="M389.841 402.999C389.841 408.288 388.592 412.337 388.745 415.572C380.18 419.307 371.374 422.463 362.385 425.019C361.368 425.309 360.352 425.584 359.328 425.86C353.787 408.912 348.239 393.393 346.054 391.746C341.05 387.996 338.545 403.514 338.545 399.763C338.545 396.012 341.05 396.012 334.798 391.014C328.538 386.015 332.293 363.517 332.293 363.517L323.535 341.018L333.331 305.134L346.054 258.52H358.565C358.565 258.52 358.936 258.789 359.553 259.289C362.683 261.843 372.123 270.375 371.077 279.77C370.765 282.571 371.462 290.711 372.675 301.55C376.364 334.278 384.838 369.858 384.838 379.246C384.838 391.746 389.841 395.497 389.841 402.999Z" fill="#E6E6E6"/>
<path d="M379.351 301.428C379.336 301.392 379.329 301.363 379.315 301.334C379.034 300.579 378.707 299.842 378.334 299.128C376.221 295.159 378.458 289.065 376.076 282.332C372.227 271.421 367.536 264.985 360.659 259.217C360.456 259.043 360.253 258.876 360.042 258.702L360.035 258.695C355.446 254.93 349.912 251.411 343.043 247.029C341.612 246.115 340.116 245.164 338.562 244.163C336.558 242.879 336.667 238.598 336.783 234.071C336.914 229.043 337.052 223.834 334.583 220.584L334.423 220.373L334.169 220.308C325.704 218.635 317.07 217.97 308.448 218.327H308.441C304.78 218.463 301.145 218.996 297.599 219.916C297.338 219.989 297.076 220.061 296.822 220.148C296.626 220.199 296.43 220.265 296.234 220.33L296.074 220.388L295.951 220.504C293.562 222.891 293.01 227.171 292.748 231.633V231.641C292.698 232.453 292.654 233.266 292.618 234.078C292.414 238.417 292.226 242.516 290.628 244.294C287.065 248.327 282.757 251.638 277.942 254.045C270.44 257.745 264.508 257.629 264.421 257.629L263.731 257.607L263.665 258.289C258.684 267.771 258.873 292.236 258.72 318.434C258.713 319.892 258.703 321.358 258.691 322.831C258.604 335.034 258.372 347.447 257.457 358.758C257.057 363.619 256.542 368.27 255.852 372.615C252.497 393.779 237.298 376.207 230.029 390.289C230.268 391.674 230.67 393.025 231.227 394.316C232.063 394.809 232.919 395.288 233.769 395.767C237.538 397.863 241.377 399.82 245.286 401.636C245.504 401.738 245.722 401.839 245.94 401.933C253.11 405.248 260.5 408.065 268.059 410.364C269.533 410.814 271.007 411.242 272.496 411.648C285.664 415.28 299.223 417.309 312.878 417.692C312.933 417.685 312.989 417.683 313.045 417.684C329.194 417.238 345.237 414.928 360.855 410.799C361.073 410.741 361.291 410.683 361.509 410.625C362.533 410.349 363.55 410.074 364.566 409.784C373.555 407.228 382.361 404.072 390.926 400.337C390.935 400.656 390.966 400.974 391.02 401.288C391.028 401.39 391.042 401.492 391.064 401.592C391.079 401.476 391.093 401.36 391.1 401.244C391.144 400.903 391.18 400.555 391.216 400.207C395.661 356.908 386.431 320.146 379.351 301.428Z" fill="#3F3D56"/>
<path d="M279.551 195.309C283.983 203.406 291.043 209.754 299.569 213.307C308.094 216.859 317.576 217.406 326.454 214.855C335.331 212.305 343.075 206.809 348.409 199.275C353.743 191.74 356.35 182.615 355.8 173.402C355.25 164.19 351.576 155.439 345.383 148.591C339.19 141.743 330.848 137.207 321.73 135.729C312.612 134.25 303.262 135.919 295.22 140.459C287.178 144.999 280.923 152.14 277.485 160.706C277.299 161.171 277.132 161.636 276.964 162.12C275.021 167.52 274.247 173.27 274.693 178.992C275.139 184.713 276.795 190.274 279.551 195.309Z" fill="#FFB6B6"/>
<path d="M273.707 162.12C275.457 157.23 274.694 159.777 276.462 154.905C275.308 159.219 277.132 161.636 276.964 162.12H325.369V134.007C311.188 128.391 297.323 123.613 288.949 134.007C281.486 134.007 274.329 136.969 269.052 142.241C263.776 147.513 260.811 154.664 260.811 162.12H273.707Z" fill="#FFECB5"/>
<path d="M290.866 240.267C290.903 239.747 290.959 239.208 291.034 238.687C291.555 234.857 292.857 231.175 294.179 227.531C295.574 223.608 296.989 219.666 298.403 215.743C296.582 222.864 297.137 230.385 299.985 237.162C308.155 230.803 303 216.263 313.682 216.263C339.364 216.263 365.79 195.457 365.79 169.78C365.79 144.121 354.773 124.933 329.091 124.933C303.391 124.933 282.547 136.684 282.045 162.343C313.682 169.78 284.892 237.664 290.866 240.267Z" fill="#FFECB5"/>
<path d="M362.581 165.847C379.026 165.847 392.357 152.528 392.357 136.098C392.357 119.668 379.026 106.349 362.581 106.349C346.136 106.349 332.805 119.668 332.805 136.098C332.805 152.528 346.136 165.847 362.581 165.847Z" fill="#FFECB5"/>
<path d="M409 306.71C408.898 308.24 408.809 309.87 408.731 311.6C407.192 344.168 408.521 388.011 398.144 411.8C395.82 413.07 393.472 414.284 391.1 415.443C391.005 415.486 390.918 415.53 390.838 415.573C390.199 415.885 389.56 416.19 388.921 416.48C388.898 416.5 388.871 416.515 388.841 416.524C381.824 419.836 374.592 422.675 367.194 425.019C366.287 425.31 365.372 425.585 364.457 425.861C364.261 425.919 364.065 425.977 363.869 426.035C349.931 430.153 335.523 432.467 320.996 432.92C320.241 432.942 319.5 432.956 318.781 432.971C318.527 432.978 318.28 432.986 318.033 432.986C317.22 432.993 316.414 433 315.6 433C313.959 433 312.325 432.976 310.699 432.927C297.044 432.545 283.485 430.516 270.317 426.884C268.828 426.478 267.354 426.05 265.88 425.6C258.322 423.301 250.931 420.484 243.761 417.169C243.543 417.075 243.325 416.973 243.107 416.872C239.2 415.058 235.361 413.102 231.59 411.002C230.741 410.524 229.884 410.045 229.049 409.551C228.491 408.261 228.089 406.91 227.85 405.525C226.202 397.609 224.88 402.949 223.936 386.48C223.072 371.382 222.52 356.241 222.317 347.585C222.252 345.278 222.23 343.428 222.223 342.166C222.992 336.666 235.366 330.427 253.411 324.499C255.118 323.941 256.883 323.382 258.691 322.831C263.571 321.329 268.784 319.856 274.231 318.434C288.1 314.806 303.502 311.476 318.788 308.727C326.333 307.377 333.849 306.166 341.147 305.135C353.949 303.321 366.062 302.066 376.424 301.551C377.419 301.5 378.392 301.457 379.35 301.428C380.382 301.384 381.391 301.355 382.379 301.334C397.309 301.007 407.504 302.56 409 306.71Z" fill="#2F2E41"/>
<path opacity="0.2" d="M409 306.71C408.898 308.24 408.809 309.87 408.731 311.6C397.418 299.425 275.538 353.81 223.936 386.48C223.072 371.382 222.52 356.24 222.317 347.585C222.252 345.278 222.23 343.428 222.223 342.165C222.992 336.666 235.366 330.427 253.412 324.499C255.118 323.941 256.883 323.382 258.691 322.83C263.571 321.329 268.784 319.856 274.231 318.434C288.1 314.806 303.502 311.476 318.788 308.726C326.333 307.377 333.849 306.165 341.147 305.135C353.949 303.321 366.062 302.066 376.424 301.551C377.419 301.5 378.392 301.457 379.351 301.428C380.382 301.384 381.391 301.355 382.379 301.333C397.309 301.007 407.504 302.56 409 306.71Z" fill="black"/>
<path d="M161.138 344.446C162.28 345.885 163.725 347.057 165.371 347.878C167.016 348.7 168.821 349.151 170.66 349.199C172.498 349.248 174.325 348.894 176.011 348.161C177.698 347.428 179.203 346.335 180.421 344.958L221.775 361.927L217.312 339.148L178.726 326.526C176.275 324.636 173.215 323.709 170.126 323.922C167.037 324.134 164.133 325.472 161.965 327.681C159.797 329.889 158.516 332.816 158.363 335.906C158.21 338.996 159.198 342.034 161.138 344.446Z" fill="#FFB6B6"/>
<path d="M298.698 249.591L298.471 249.568L274.356 251.317C271.294 251.539 268.315 252.409 265.615 253.869C262.916 255.33 260.558 257.347 258.699 259.787C257.835 260.918 257.087 262.133 256.466 263.413L256.46 263.417C254.381 267.667 253.755 272.48 254.676 277.12L266.03 334.22L238.712 331.741L228.741 333.443L216.973 328.7L192.827 329.11L192.268 330.959L187.202 347.736L186.805 349.054L223.676 372.268L234.366 369.019L239.402 372.884L239.643 372.89L249.63 373.087L292.218 373.922L303.859 353.316L305.678 350.086C319.198 319.825 322.534 298.7 321.476 284.147C320.921 276.457 319.142 270.612 316.988 266.207C310.327 252.595 299.167 249.706 298.698 249.591Z" fill="#3F3D56"/>
<path d="M366.346 162.51C360.699 161.242 355.464 158.57 351.126 154.742C346.788 150.914 343.487 146.054 341.53 140.612C339.783 135.549 339.124 129.99 336.191 125.485C340.659 119.356 344.241 112.629 346.833 105.503C347.836 102.744 350.186 97.7365 346.203 96.2189C343.029 95.0098 339.424 97.9279 337.543 100.231C336.113 101.975 335.088 104.015 334.541 106.202C333.892 103.34 333.244 100.478 332.595 97.6154C332.512 97.3408 332.327 97.1085 332.077 96.9669C331.828 96.8253 331.533 96.7854 331.255 96.8553C325.938 97.7609 322.082 102.68 321.412 107.86C321.047 110.528 321.654 113.237 323.123 115.494C324.831 118.09 327.332 119.951 329.712 121.886C332.243 123.943 334.389 126.134 335.75 129.143C337.164 132.27 337.801 135.692 338.739 138.975C340.52 145.282 343.971 150.991 348.727 155.503C353.484 160.014 359.37 163.16 365.767 164.609C367.133 164.907 367.717 162.809 366.346 162.51ZM336.321 110.479C336.15 107.745 336.873 105.03 338.381 102.742C339.136 101.582 340.082 100.558 341.179 99.7137C342.22 98.9198 343.754 97.8684 345.13 98.16C346.915 98.5383 346.197 100.529 345.818 101.729C345.317 103.313 344.768 104.879 344.168 106.429C343 109.439 341.644 112.373 340.109 115.213C339.312 116.692 338.46 118.139 337.57 119.562C336.957 116.857 336.343 114.151 335.73 111.445C335.923 111.375 336.087 111.241 336.194 111.065C336.301 110.89 336.346 110.683 336.321 110.479ZM323.599 110.912C323.242 108.44 323.759 105.921 325.06 103.788C326.361 101.655 328.365 100.041 330.728 99.2239C332.457 106.852 334.186 114.479 335.915 122.107C335.558 122.633 335.19 123.151 334.821 123.668C334.724 123.557 334.636 123.443 334.535 123.333C330.908 119.39 324.584 116.702 323.599 110.912Z" fill="#6C63FF"/>
</g>
<defs>
<clipPath id="clip0_807_164">
<rect width="409" height="433" fill="white"/>
</clipPath>
</defs>
</svg>
