<svg width="33" height="39" viewBox="0 0 33 39" fill="none" xmlns="http://www.w3.org/2000/svg">
<path d="M1.64136 29.8333C0.892389 29.8333 0.40924 29.0403 0.752708 28.3747L14.9741 0.81671C15.3557 0.0772681 16.4208 0.100146 16.7703 0.85529L26.0564 20.92C26.2201 21.2736 26.5743 21.5 26.964 21.5H31.5867C32.3758 21.5 32.854 22.3711 32.4304 23.0368L29.4614 27.7035C29.2778 27.992 28.9596 28.1667 28.6177 28.1667H13.4881C12.6991 28.1667 12.2209 27.2956 12.6444 26.6299L15.6135 21.9632C15.797 21.6747 16.1153 21.5 16.4572 21.5H16.4925C17.2058 21.5 17.6898 20.7745 17.4158 20.1159L16.6956 18.3847C16.3762 17.617 15.3138 17.5517 14.9029 18.2747L8.62085 29.3275C8.44312 29.6402 8.11115 29.8333 7.75147 29.8333H1.64136Z" fill="#333333"/>
<path d="M22.3868 29.8333C21.6789 29.8333 21.1951 30.5486 21.4586 31.2056L23.2086 35.5683C23.3222 35.8515 23.5589 36.0673 23.8513 36.1544L31.3039 38.3734C32.1261 38.6182 32.8546 37.7822 32.4997 37.0012L29.508 30.4195C29.3457 30.0625 28.9898 29.8333 28.5976 29.8333H22.3868Z" fill="#FD496D"/>
</svg>
