<svg width="40" height="47" viewBox="0 0 40 47" fill="none" xmlns="http://www.w3.org/2000/svg">
<path d="M1.63967 36C0.891102 36 0.407926 35.2077 0.750603 34.5422L18.1132 0.821646C18.4945 0.0811275 19.5609 0.104002 19.9101 0.860188L31.2509 25.4192C31.4144 25.7733 31.7688 26 32.1587 26H38.1807C38.9693 26 39.4476 26.8702 39.025 27.5359L35.2162 33.5359C35.0327 33.8249 34.7142 34 34.3719 34H15.7879C14.9993 34 14.521 33.1298 14.9436 32.4641L18.7525 26.4641C18.9359 26.1751 19.2544 26 19.5967 26H20.0437C20.7567 26 21.2406 25.2752 20.9673 24.6167L19.8354 21.8895C19.5163 21.1208 18.4525 21.0556 18.0419 21.7796L10.2649 35.4933C10.0873 35.8065 9.7551 36 9.39508 36H1.63967Z" fill="#333333"/>
<path d="M26.5109 36C25.8034 36 25.3196 36.7147 25.5825 37.3716L27.8237 42.9714C27.9371 43.2547 28.1737 43.4708 28.4661 43.558L37.8968 46.3723C38.7187 46.6176 39.4477 45.7822 39.0934 45.0011L35.2774 36.587C35.1153 36.2296 34.7591 36 34.3667 36H26.5109Z" fill="#FD496D"/>
</svg>
